<?xml version="1.0" encoding="UTF-8"?>
<svg width="394px" height="136px" viewBox="0 0 394 136" version="1.1" xmlns="http://www.w3.org/2000/svg" xmlns:xlink="http://www.w3.org/1999/xlink">
    <!-- Generator: Sketch 52.6 (67491) - http://www.bohemiancoding.com/sketch -->
    <title>Logo</title>
    <desc>Created with Sketch.</desc>
    <g id="Page-1" stroke="none" stroke-width="1" fill="none" fill-rule="evenodd">
        <g id="Landing" transform="translate(-271.000000, -167.000000)">
            <g id="Header">
                <g id="Logo" transform="translate(279.000000, 155.000000)">
                    <path d="M182.1375,37.6625 C181.862499,38.0125017 181.593751,38.287499 181.33125,38.4875 C181.068749,38.687501 180.687502,38.7875 180.1875,38.7875 C179.712498,38.7875 179.250002,38.6437514 178.8,38.35625 C178.349998,38.0687486 177.812503,37.7437518 177.1875,37.38125 C176.562497,37.0187482 175.818754,36.6937514 174.95625,36.40625 C174.093746,36.1187486 173.025006,35.975 171.75,35.975 C170.124992,35.975 168.700006,36.2687471 167.475,36.85625 C166.249994,37.4437529 165.231254,38.2874945 164.41875,39.3875 C163.606246,40.4875055 163.000002,41.8187422 162.6,43.38125 C162.199998,44.9437578 162,46.7124901 162,48.6875 C162,50.7375103 162.218748,52.562492 162.65625,54.1625 C163.093752,55.762508 163.724996,57.1062446 164.55,58.19375 C165.375004,59.2812554 166.374994,60.1062472 167.55,60.66875 C168.725006,61.2312528 170.049993,61.5125 171.525,61.5125 C173.000007,61.5125 174.193745,61.3312518 175.10625,60.96875 C176.018755,60.6062482 176.787497,60.2062522 177.4125,59.76875 C178.037503,59.3312478 178.581248,58.9312518 179.04375,58.56875 C179.506252,58.2062482 180.024997,58.025 180.6,58.025 C181.350004,58.025 181.912498,58.3124971 182.2875,58.8875 L184.95,62.2625 C183.924995,63.462506 182.812506,64.4687459 181.6125,65.28125 C180.412494,66.0937541 179.168756,66.7437476 177.88125,67.23125 C176.593744,67.7187524 175.268757,68.062499 173.90625,68.2625 C172.543743,68.462501 171.187507,68.5625 169.8375,68.5625 C167.462488,68.5625 165.22501,68.1187544 163.125,67.23125 C161.02499,66.3437456 159.187508,65.0500085 157.6125,63.35 C156.037492,61.6499915 154.793755,59.5687623 153.88125,57.10625 C152.968745,54.6437377 152.5125,51.8375157 152.5125,48.6875 C152.5125,45.8624859 152.918746,43.2437621 153.73125,40.83125 C154.543754,38.4187379 155.737492,36.3312588 157.3125,34.56875 C158.887508,32.8062412 160.837488,31.425005 163.1625,30.425 C165.487512,29.424995 168.162485,28.925 171.1875,28.925 C174.062514,28.925 176.581239,29.3874954 178.74375,30.3125 C180.906261,31.2375046 182.849991,32.5624914 184.575,34.2875 L182.1375,37.6625 Z M199.9875,33.65 C201.487507,32.249993 203.137491,31.1125044 204.9375,30.2375 C206.737509,29.3624956 208.849988,28.925 211.275,28.925 C213.375011,28.925 215.237492,29.2812464 216.8625,29.99375 C218.487508,30.7062536 219.843745,31.7062436 220.93125,32.99375 C222.018755,34.2812564 222.843747,35.8187411 223.40625,37.60625 C223.968753,39.3937589 224.25,41.3624893 224.25,43.5125 L224.25,68 L214.9875,68 L214.9875,43.5125 C214.9875,41.1624882 214.450005,39.3437564 213.375,38.05625 C212.299995,36.7687436 210.662511,36.125 208.4625,36.125 C206.862492,36.125 205.362507,36.4874964 203.9625,37.2125 C202.562493,37.9375036 201.237506,38.9249937 199.9875,40.175 L199.9875,68 L190.725,68 L190.725,12.275 L199.9875,12.275 L199.9875,33.65 Z M250.05,28.925 C252.900014,28.925 255.493738,29.3874954 257.83125,30.3125 C260.168762,31.2375046 262.168742,32.5499915 263.83125,34.25 C265.493758,35.9500085 266.774995,38.0249877 267.675,40.475 C268.575004,42.9250122 269.025,45.6624849 269.025,48.6875 C269.025,51.7375153 268.575004,54.4874877 267.675,56.9375 C266.774995,59.3875122 265.493758,61.4749914 263.83125,63.2 C262.168742,64.9250086 260.168762,66.2499954 257.83125,67.175 C255.493738,68.1000046 252.900014,68.5625 250.05,68.5625 C247.174986,68.5625 244.562512,68.1000046 242.2125,67.175 C239.862488,66.2499954 237.856258,64.9250086 236.19375,63.2 C234.531242,61.4749914 233.243755,59.3875122 232.33125,56.9375 C231.418745,54.4874877 230.9625,51.7375153 230.9625,48.6875 C230.9625,45.6624849 231.418745,42.9250122 232.33125,40.475 C233.243755,38.0249877 234.531242,35.9500085 236.19375,34.25 C237.856258,32.5499915 239.862488,31.2375046 242.2125,30.3125 C244.562512,29.3874954 247.174986,28.925 250.05,28.925 Z M250.05,61.4375 C253.250016,61.4375 255.618742,60.3625107 257.15625,58.2125 C258.693758,56.0624892 259.4625,52.9125207 259.4625,48.7625 C259.4625,44.6124792 258.693758,41.4500109 257.15625,39.275 C255.618742,37.0999891 253.250016,36.0125 250.05,36.0125 C246.799984,36.0125 244.393758,37.1062391 242.83125,39.29375 C241.268742,41.4812609 240.4875,44.6374794 240.4875,48.7625 C240.4875,52.8875206 241.268742,56.0312392 242.83125,58.19375 C244.393758,60.3562608 246.799984,61.4375 250.05,61.4375 Z M293.1375,28.925 C295.987514,28.925 298.581238,29.3874954 300.91875,30.3125 C303.256262,31.2375046 305.256242,32.5499915 306.91875,34.25 C308.581258,35.9500085 309.862496,38.0249877 310.7625,40.475 C311.662504,42.9250122 312.1125,45.6624849 312.1125,48.6875 C312.1125,51.7375153 311.662504,54.4874877 310.7625,56.9375 C309.862496,59.3875122 308.581258,61.4749914 306.91875,63.2 C305.256242,64.9250086 303.256262,66.2499954 300.91875,67.175 C298.581238,68.1000046 295.987514,68.5625 293.1375,68.5625 C290.262486,68.5625 287.650012,68.1000046 285.3,67.175 C282.949988,66.2499954 280.943758,64.9250086 279.28125,63.2 C277.618742,61.4749914 276.331255,59.3875122 275.41875,56.9375 C274.506245,54.4874877 274.05,51.7375153 274.05,48.6875 C274.05,45.6624849 274.506245,42.9250122 275.41875,40.475 C276.331255,38.0249877 277.618742,35.9500085 279.28125,34.25 C280.943758,32.5499915 282.949988,31.2375046 285.3,30.3125 C287.650012,29.3874954 290.262486,28.925 293.1375,28.925 Z M293.1375,61.4375 C296.337516,61.4375 298.706242,60.3625107 300.24375,58.2125 C301.781258,56.0624892 302.55,52.9125207 302.55,48.7625 C302.55,44.6124792 301.781258,41.4500109 300.24375,39.275 C298.706242,37.0999891 296.337516,36.0125 293.1375,36.0125 C289.887484,36.0125 287.481258,37.1062391 285.91875,39.29375 C284.356242,41.4812609 283.575,44.6374794 283.575,48.7625 C283.575,52.8875206 284.356242,56.0312392 285.91875,58.19375 C287.481258,60.3562608 289.887484,61.4375 293.1375,61.4375 Z M342.675,37.025 C342.424999,37.425002 342.162501,37.7062492 341.8875,37.86875 C341.612499,38.0312508 341.262502,38.1125 340.8375,38.1125 C340.387498,38.1125 339.906253,37.9875013 339.39375,37.7375 C338.881247,37.4874987 338.287503,37.2062516 337.6125,36.89375 C336.937497,36.5812484 336.168754,36.3000013 335.30625,36.05 C334.443746,35.7999988 333.425006,35.675 332.25,35.675 C330.424991,35.675 328.993755,36.0624961 327.95625,36.8375 C326.918745,37.6125039 326.4,38.6249938 326.4,39.875 C326.4,40.7000041 326.668747,41.3937472 327.20625,41.95625 C327.743753,42.5187528 328.456246,43.0124979 329.34375,43.4375 C330.231254,43.8625021 331.237494,44.2437483 332.3625,44.58125 C333.487506,44.9187517 334.631244,45.287498 335.79375,45.6875 C336.956256,46.087502 338.099994,46.5437474 339.225,47.05625 C340.350006,47.5687526 341.356246,48.2187461 342.24375,49.00625 C343.131254,49.7937539 343.843747,50.7374945 344.38125,51.8375 C344.918753,52.9375055 345.1875,54.2624923 345.1875,55.8125 C345.1875,57.6625092 344.856253,59.3687422 344.19375,60.93125 C343.531247,62.4937578 342.550006,63.8437443 341.25,64.98125 C339.949994,66.1187557 338.34376,67.0062468 336.43125,67.64375 C334.51874,68.2812532 332.312513,68.6 329.8125,68.6 C328.487493,68.6 327.193756,68.4812512 325.93125,68.24375 C324.668744,68.0062488 323.456256,67.6750021 322.29375,67.25 C321.131244,66.8249979 320.056255,66.3250029 319.06875,65.75 C318.081245,65.1749971 317.212504,64.5500034 316.4625,63.875 L318.6,60.35 C318.875001,59.9249979 319.199998,59.6000011 319.575,59.375 C319.950002,59.1499989 320.424997,59.0375 321,59.0375 C321.575003,59.0375 322.118747,59.1999984 322.63125,59.525 C323.143753,59.8500016 323.737497,60.1999981 324.4125,60.575 C325.087503,60.9500019 325.881245,61.2999984 326.79375,61.625 C327.706255,61.9500016 328.862493,62.1125 330.2625,62.1125 C331.362505,62.1125 332.306246,61.9812513 333.09375,61.71875 C333.881254,61.4562487 334.531247,61.1125021 335.04375,60.6875 C335.556253,60.2624979 335.931249,59.7687528 336.16875,59.20625 C336.406251,58.6437472 336.525,58.062503 336.525,57.4625 C336.525,56.5624955 336.256253,55.8250029 335.71875,55.25 C335.181247,54.6749971 334.468754,54.1750021 333.58125,53.75 C332.693746,53.3249979 331.681256,52.9437517 330.54375,52.60625 C329.406244,52.2687483 328.243756,51.900002 327.05625,51.5 C325.868744,51.099998 324.706256,50.6312527 323.56875,50.09375 C322.431244,49.5562473 321.418754,48.8750041 320.53125,48.05 C319.643746,47.2249959 318.931253,46.212506 318.39375,45.0125 C317.856247,43.812494 317.5875,42.3625085 317.5875,40.6625 C317.5875,39.0874921 317.899997,37.5875071 318.525,36.1625 C319.150003,34.7374929 320.068744,33.4937553 321.28125,32.43125 C322.493756,31.3687447 324.006241,30.5187532 325.81875,29.88125 C327.631259,29.2437468 329.724988,28.925 332.1,28.925 C334.750013,28.925 337.162489,29.3624956 339.3375,30.2375 C341.512511,31.1125044 343.324993,32.2624929 344.775,33.6875 L342.675,37.025 Z M376.95,44.3375 C376.95,43.137494 376.781252,42.0062553 376.44375,40.94375 C376.106248,39.8812447 375.600003,38.950004 374.925,38.15 C374.249997,37.349996 373.393755,36.7187523 372.35625,36.25625 C371.318745,35.7937477 370.112507,35.5625 368.7375,35.5625 C366.062487,35.5625 363.956258,36.3249924 362.41875,37.85 C360.881242,39.3750076 359.900002,41.537486 359.475,44.3375 L376.95,44.3375 Z M359.2875,49.925 C359.437501,51.9000099 359.787497,53.6062428 360.3375,55.04375 C360.887503,56.4812572 361.612496,57.6687453 362.5125,58.60625 C363.412505,59.5437547 364.481244,60.2437477 365.71875,60.70625 C366.956256,61.1687523 368.324993,61.4 369.825,61.4 C371.325008,61.4 372.618745,61.2250018 373.70625,60.875 C374.793755,60.5249982 375.743746,60.1375021 376.55625,59.7125 C377.368754,59.2874979 378.081247,58.9000018 378.69375,58.55 C379.306253,58.1999982 379.899997,58.025 380.475,58.025 C381.250004,58.025 381.824998,58.3124971 382.2,58.8875 L384.8625,62.2625 C383.837495,63.462506 382.687506,64.4687459 381.4125,65.28125 C380.137494,66.0937541 378.806257,66.7437476 377.41875,67.23125 C376.031243,67.7187524 374.618757,68.062499 373.18125,68.2625 C371.743743,68.462501 370.350007,68.5625 369,68.5625 C366.324987,68.5625 363.837512,68.1187544 361.5375,67.23125 C359.237488,66.3437456 357.237508,65.0312587 355.5375,63.29375 C353.837491,61.5562413 352.500005,59.4062628 351.525,56.84375 C350.549995,54.2812372 350.0625,51.3125169 350.0625,47.9375 C350.0625,45.3124869 350.487496,42.8437616 351.3375,40.53125 C352.187504,38.2187384 353.406242,36.2062586 354.99375,34.49375 C356.581258,32.7812414 358.518739,31.425005 360.80625,30.425 C363.093761,29.424995 365.674986,28.925 368.55,28.925 C370.975012,28.925 373.21249,29.3124961 375.2625,30.0875 C377.31251,30.8625039 379.074993,31.9937426 380.55,33.48125 C382.025007,34.9687574 383.181246,36.7937392 384.01875,38.95625 C384.856254,41.1187608 385.275,43.5874861 385.275,46.3625 C385.275,47.762507 385.125001,48.7062476 384.825,49.19375 C384.524998,49.6812524 383.950004,49.925 383.1,49.925 L359.2875,49.925 Z M158.3625,145 L158.3625,111.5875 L153.1125,111.25 C152.412497,111.175 152.0625,110.862503 152.0625,110.3125 L152.0625,108.85 L158.3625,108.85 L158.3625,104.125 C158.3625,101.999989 158.637497,100.131258 159.1875,98.51875 C159.737503,96.9062419 160.512495,95.5625054 161.5125,94.4875 C162.512505,93.4124946 163.712493,92.6062527 165.1125,92.06875 C166.512507,91.5312473 168.062491,91.2625 169.7625,91.2625 C170.537504,91.2625 171.318746,91.3312493 172.10625,91.46875 C172.893754,91.6062507 173.599997,91.7999987 174.225,92.05 L174.1125,93.775 C174.0625,94.0000011 173.956251,94.1437497 173.79375,94.20625 C173.631249,94.2687503 173.400002,94.2937501 173.1,94.28125 C172.799999,94.2687499 172.412502,94.2312503 171.9375,94.16875 C171.462498,94.1062497 170.912503,94.075 170.2875,94.075 C169.062494,94.075 167.931255,94.2562482 166.89375,94.61875 C165.856245,94.9812518 164.962504,95.562496 164.2125,96.3625 C163.462496,97.162504 162.881252,98.2062436 162.46875,99.49375 C162.056248,100.781256 161.85,102.362491 161.85,104.2375 L161.85,108.85 L173.9625,108.85 L173.9625,111.5125 L161.9625,111.5125 L161.9625,145 L158.3625,145 Z M196.4625,107.0875 C199.137513,107.0875 201.531239,107.543745 203.64375,108.45625 C205.756261,109.368755 207.537493,110.662492 208.9875,112.3375 C210.437507,114.012508 211.543746,116.031238 212.30625,118.39375 C213.068754,120.756262 213.45,123.399985 213.45,126.325 C213.45,129.250015 213.068754,131.887488 212.30625,134.2375 C211.543746,136.587512 210.437507,138.599992 208.9875,140.275 C207.537493,141.950008 205.756261,143.237495 203.64375,144.1375 C201.531239,145.037505 199.137513,145.4875 196.4625,145.4875 C193.787487,145.4875 191.393761,145.037505 189.28125,144.1375 C187.168739,143.237495 185.381257,141.950008 183.91875,140.275 C182.456243,138.599992 181.343754,136.587512 180.58125,134.2375 C179.818746,131.887488 179.4375,129.250015 179.4375,126.325 C179.4375,123.399985 179.818746,120.756262 180.58125,118.39375 C181.343754,116.031238 182.456243,114.012508 183.91875,112.3375 C185.381257,110.662492 187.168739,109.368755 189.28125,108.45625 C191.393761,107.543745 193.787487,107.0875 196.4625,107.0875 Z M196.4625,142.675 C198.687511,142.675 200.631242,142.293754 202.29375,141.53125 C203.956258,140.768746 205.343744,139.675007 206.45625,138.25 C207.568756,136.824993 208.399997,135.10626 208.95,133.09375 C209.500003,131.08124 209.775,128.825013 209.775,126.325 C209.775,123.849988 209.500003,121.60001 208.95,119.575 C208.399997,117.54999 207.568756,115.818757 206.45625,114.38125 C205.343744,112.943743 203.956258,111.837504 202.29375,111.0625 C200.631242,110.287496 198.687511,109.9 196.4625,109.9 C194.237489,109.9 192.293758,110.287496 190.63125,111.0625 C188.968742,111.837504 187.581256,112.943743 186.46875,114.38125 C185.356244,115.818757 184.518753,117.54999 183.95625,119.575 C183.393747,121.60001 183.1125,123.849988 183.1125,126.325 C183.1125,128.825013 183.393747,131.08124 183.95625,133.09375 C184.518753,135.10626 185.356244,136.824993 186.46875,138.25 C187.581256,139.675007 188.968742,140.768746 190.63125,141.53125 C192.293758,142.293754 194.237489,142.675 196.4625,142.675 Z M226.95,116.6875 C227.525003,115.162492 228.181246,113.806256 228.91875,112.61875 C229.656254,111.431244 230.506245,110.425004 231.46875,109.6 C232.431255,108.774996 233.506244,108.143752 234.69375,107.70625 C235.881256,107.268748 237.199993,107.05 238.65,107.05 C239.425004,107.05 240.187496,107.118749 240.9375,107.25625 C241.687504,107.393751 242.349997,107.637498 242.925,107.9875 L242.625,110.4625 C242.499999,110.862502 242.262502,111.0625 241.9125,111.0625 C241.612499,111.0625 241.156253,110.975001 240.54375,110.8 C239.931247,110.624999 239.125005,110.5375 238.125,110.5375 C236.674993,110.5375 235.393756,110.756248 234.28125,111.19375 C233.168744,111.631252 232.168754,112.287496 231.28125,113.1625 C230.393746,114.037504 229.618753,115.118744 228.95625,116.40625 C228.293747,117.693756 227.687503,119.174992 227.1375,120.85 L227.1375,145 L223.5375,145 L223.5375,107.6875 L225.45,107.6875 C225.875002,107.6875 226.174999,107.774999 226.35,107.95 C226.525001,108.125001 226.6375,108.424998 226.6875,108.85 L226.95,116.6875 Z M270.4125,145 L270.4125,107.6875 L272.4,107.6875 C273.025003,107.6875 273.387499,107.999997 273.4875,108.625 L273.825,114.025 C275.275007,111.94999 276.937491,110.275006 278.8125,109 C280.687509,107.724994 282.799988,107.0875 285.15,107.0875 C287.875014,107.0875 290.056242,107.874992 291.69375,109.45 C293.331258,111.025008 294.437497,113.212486 295.0125,116.0125 C295.462502,114.487492 296.093746,113.162506 296.90625,112.0375 C297.718754,110.912494 298.649995,109.981254 299.7,109.24375 C300.750005,108.506246 301.893744,107.962502 303.13125,107.6125 C304.368756,107.262498 305.637494,107.0875 306.9375,107.0875 C308.787509,107.0875 310.449993,107.393747 311.925,108.00625 C313.400007,108.618753 314.649995,109.524994 315.675,110.725 C316.700005,111.925006 317.487497,113.399991 318.0375,115.15 C318.587503,116.900009 318.8625,118.899989 318.8625,121.15 L318.8625,145 L315.3,145 L315.3,121.15 C315.3,117.499982 314.512508,114.71876 312.9375,112.80625 C311.362492,110.89374 309.112515,109.9375 306.1875,109.9375 C304.887494,109.9375 303.643756,110.174998 302.45625,110.65 C301.268744,111.125002 300.218755,111.831245 299.30625,112.76875 C298.393745,113.706255 297.668753,114.874993 297.13125,116.275 C296.593747,117.675007 296.325,119.299991 296.325,121.15 L296.325,145 L292.725,145 L292.725,121.15 C292.725,117.524982 292.006257,114.75001 290.56875,112.825 C289.131243,110.89999 287.025014,109.9375 284.25,109.9375 C282.22499,109.9375 280.350009,110.537494 278.625,111.7375 C276.899991,112.937506 275.362507,114.599989 274.0125,116.725 L274.0125,145 L270.4125,145 Z M356.9625,122.575 C356.9625,120.57499 356.681253,118.781258 356.11875,117.19375 C355.556247,115.606242 354.762505,114.262506 353.7375,113.1625 C352.712495,112.062494 351.493757,111.218753 350.08125,110.63125 C348.668743,110.043747 347.112508,109.75 345.4125,109.75 C343.48749,109.75 341.762508,110.049997 340.2375,110.65 C338.712492,111.250003 337.393756,112.112494 336.28125,113.2375 C335.168744,114.362506 334.275003,115.712492 333.6,117.2875 C332.924997,118.862508 332.475001,120.62499 332.25,122.575 L356.9625,122.575 Z M332.0625,124.8625 L332.0625,125.575 C332.0625,128.375014 332.387497,130.837489 333.0375,132.9625 C333.687503,135.087511 334.612494,136.868743 335.8125,138.30625 C337.012506,139.743757 338.462491,140.824996 340.1625,141.55 C341.862508,142.275004 343.762489,142.6375 345.8625,142.6375 C347.737509,142.6375 349.362493,142.431252 350.7375,142.01875 C352.112507,141.606248 353.268745,141.143753 354.20625,140.63125 C355.143755,140.118747 355.887497,139.656252 356.4375,139.24375 C356.987503,138.831248 357.387499,138.625 357.6375,138.625 C357.962502,138.625 358.212499,138.749999 358.3875,139 L359.3625,140.2 C358.762497,140.950004 357.968755,141.649997 356.98125,142.3 C355.993745,142.950003 354.893756,143.506248 353.68125,143.96875 C352.468744,144.431252 351.168757,144.799999 349.78125,145.075 C348.393743,145.350001 347.000007,145.4875 345.6,145.4875 C343.049987,145.4875 340.72501,145.043754 338.625,144.15625 C336.52499,143.268746 334.725008,141.975009 333.225,140.275 C331.724992,138.574992 330.568754,136.493762 329.75625,134.03125 C328.943746,131.568738 328.5375,128.750016 328.5375,125.575 C328.5375,122.899987 328.918746,120.431261 329.68125,118.16875 C330.443754,115.906239 331.543743,113.956258 332.98125,112.31875 C334.418757,110.681242 336.18124,109.400005 338.26875,108.475 C340.35626,107.549995 342.724987,107.0875 345.375,107.0875 C347.47501,107.0875 349.424991,107.449996 351.225,108.175 C353.025009,108.900004 354.587493,109.956243 355.9125,111.34375 C357.237507,112.731257 358.281246,114.43749 359.04375,116.4625 C359.806254,118.48751 360.1875,120.812487 360.1875,123.4375 C360.1875,123.987503 360.112501,124.362499 359.9625,124.5625 C359.812499,124.762501 359.562502,124.8625 359.2125,124.8625 L332.0625,124.8625 Z" id="choose-for-me" fill="#FFFFFF"></path>
                    <g id="Check" transform="translate(0.000000, 27.000000)">
                        <g id="Group">
                            <rect id="Rectangle" stroke="#FFFFFF" stroke-width="16" x="0" y="0" width="113" height="113" rx="9"></rect>
                            <path d="M48.4396688,67.918493 L77.9551095,33.1533592 C80.255014,30.3822254 82.1077148,29.4375206 83.513212,30.319245 C85.6214578,31.6418317 83.1298946,35.6095915 81.4049663,38.2547647 C80.255014,40.0182135 70.9915099,54.2517647 53.6144538,80.9554181 C50.2923696,83.4746307 47.3536028,83.4746307 44.7981534,80.9554181 C42.2427039,78.4362056 37.3873501,72.9569182 30.2320917,64.517556 C28.3155046,60.7778283 28.6349358,58.0794476 31.1903852,56.4224138 C33.7458346,54.76538 36.2373978,54.76538 38.6650748,56.4224138 L48.4396688,67.918493 Z" id="Path" fill="#FFFFFF"></path>
                        </g>
                    </g>
                </g>
            </g>
        </g>
    </g>
</svg>